<svg xmlns="http://www.w3.org/2000/svg" version="1.1" xmlns:xlink="http://www.w3.org/1999/xlink" xmlns:svgjs="http://svgjs.dev/svgjs" width="1000" height="1000" viewBox="0 0 1000 1000"><rect width="1000" height="1000" fill="#ffffff"></rect><g transform="matrix(0.7,0,0,0.7,150.0000000000001,106.25)"><svg viewBox="0 0 320 360" data-background-color="#ffffff" preserveAspectRatio="xMidYMid meet" height="1125" width="1000" xmlns="http://www.w3.org/2000/svg" xmlns:xlink="http://www.w3.org/1999/xlink"><g id="tight-bounds" transform="matrix(1,0,0,1,0,0)"><svg viewBox="0 0 320 360" height="360" width="320"><g><svg></svg></g><g><svg viewBox="0 0 320 360" height="360" width="320"><g><path xmlns="http://www.w3.org/2000/svg" d="M20.961 227.22l3.726 4.658-1.863-6.056c-0.466-2.795-3.726 0.466-1.863 1.398M25.153 224.425c1.397 2.329 2.795 4.658 2.795 6.987 0 3.261 2.795 4.658 5.123 5.589-3.261-3.726-5.124-13.974-7.918-12.576M204.017 26.929c7.918 0 15.371-0.932 23.756 0.931 20.495 5.124 37.729 15.371 49.374 29.811l32.606 52.169c1.397 13.042 4.192 27.482 3.726 43.319 3.261 0 2.795-4.658 6.521-5.59-3.726 9.316-5.59 20.961-6.521 34.469-2.329-7.453 0-18.632 0.466-24.687-3.261 5.124-5.124 1.397-5.124-0.932 0.466-3.726-1.397-3.261-2.795-4.658-5.124-4.658-8.384-9.782-12.11-17.7 2.329-6.055 2.795-14.905-4.658-19.563-2.329-1.397-5.124-3.726-6.521-7.453-1.863-5.124-5.124-11.179-4.193-19.097 0.466-2.329-6.987 5.124-11.179 1.863-18.166-12.576-36.332-27.016-58.224-39.127-11.645 0-20.029-4.192-24.221-9.316-3.726-4.658-0.932-10.713 4.658-11.179 3.261 0 6.987-0.932 9.782 0.932 0.466-1.863 2.329-4.192 4.657-4.192M157.904 16.215l0.932 0.466c4.658 0.932 6.987 7.453 12.11 5.124 0 3.261 0.466 6.521-0.466 8.85-1.397 3.726-5.59 3.726-8.85 3.726-31.208-1.863-49.374 11.179-68.471 22.358-5.124 3.261-10.713 5.59-14.906 9.782-20.029 18.632-41.921 35.866-47.045 70.335l-4.192 38.195c-0.466 4.192-5.124 8.384-4.192 13.508l3.26 22.824c-3.261-3.261-5.124 0.932-4.192 2.795 0.466 1.397 2.329 6.055 5.124 1.863 3.726 6.987 7.453 20.495 12.576 26.55 15.837 18.632 36.332 35.4 53.101 52.169 4.192-0.932 7.453-0.932 8.384-3.727 1.397 2.795-1.397 5.59-3.726 6.056 7.453 4.658 15.837 8.85 27.016 9.781 14.44 0.932 27.948 3.261 40.524 6.522 6.521-1.863 13.042-2.795 20.029-3.261 2.329 0 3.726-3.726 6.521-4.658l0.466-4.658c2.795 4.192 2.329-1.397 0.466-4.192 3.261 2.795 4.192 5.124 5.589 6.987 0-1.397 3.726-6.521 3.727-0.466l0.931-6.055c1.397-0.932 1.863 5.124 3.261 0.931 1.397-4.192 4.192-0.932 6.987-2.329-0.932 1.863-0.466 5.59 2.794 3.261l3.727-3.261c2.329 5.59 6.055 3.261 7.918 2.329 20.495-13.042 40.99-28.413 60.553-43.784l-0.466 6.055 2.329-7.453c2.329 2.329 4.192 0.466 5.124-0.931 2.795-4.658 6.521-9.316 12.577-13.508-7.453 20.029-16.303 35.866-27.482 48.908l-4.658 5.59c0 3.261-0.932 7.453-4.658 7.918-1.863 0.466-5.59-0.932-8.384 1.863-1.397 1.863 3.261 5.59-0.466 2.795-3.261-2.329-6.521 0-10.248 0.932-2.795 0.932 1.863 3.726 2.795 5.589 0.932 1.863 1.863 3.726 1.398 6.056l-5.124-5.59c-6.055 3.261-9.782 9.316-14.906 13.974-2.329 1.863-1.397 5.124-1.397 7.918-3.261 0-6.987-0.932-8.85 0.932-1.397 1.863-0.932 4.658-0.932 7.453-4.658-0.466-5.124-7.453-9.315-6.056-4.192 0.932-8.85 1.397-12.577 3.727 2.795 5.59-4.658 2.329-3.726 3.26-6.987-4.192-13.042-7.453-20.495-4.658-15.837-5.124-35.4-2.795-49.84-0.931 0-2.329 0.466-4.658-0.466-5.124-0.932 2.329-3.726 1.397-3.26 1.397-8.85-6.055-17.7-9.782-27.016-14.905-8.384 0.932-16.303-3.261-18.632-5.59-6.521-6.055-13.974-2.795-20.029-4.192-13.042-3.261-17.7-16.769-19.098-26.084-0.932-4.658-4.658-6.521-6.055-6.056-6.055-19.563-15.371-37.263-22.824-55.429-1.863-4.658-1.397-9.316-1.397-14.44 2.329 0.932 4.658 0.466 4.192-2.794-2.329-15.371-7.918-27.016-13.974-38.195 3.261-15.837 3.726-34.469 11.179-48.443 6.521-12.576 18.632-19.098 27.016-29.811 2.795-3.726 2.795-8.85 5.59-12.11 9.316-9.316 18.632-19.098 28.879-27.482 4.658-3.726 10.247 0 17.234-1.397 2.329-8.384 11.645-15.837 20.495-13.508 3.726 0.932 11.179-8.85 13.508-9.782 3.726-1.397 1.863 3.726 1.863 6.987 8.85-6.987 20.961-10.713 32.14-14.906" fill="#ec5242" fill-rule="nonzero" stroke="none" stroke-width="1" stroke-linecap="butt" stroke-linejoin="miter" stroke-miterlimit="10" stroke-dasharray="" stroke-dashoffset="0" font-family="none" font-weight="none" font-size="none" text-anchor="none" style="mix-blend-mode: normal" data-fill-palette-color="tertiary"></path></g><g transform="matrix(1,0,0,1,64,160.72416063199472)"><svg viewBox="0 0 192 38.55167873601053" height="38.55167873601053" width="192"><g><svg viewBox="0 0 192 38.55167873601053" height="38.55167873601053" width="192"><g><svg viewBox="0 0 192 38.55167873601053" height="38.55167873601053" width="192"><g id="textblocktransform"><svg viewBox="0 0 192 38.55167873601053" height="38.55167873601053" width="192" id="textblock"><g><svg viewBox="0 0 192 38.55167873601053" height="38.55167873601053" width="192"><g transform="matrix(1,0,0,1,0,0)"><svg width="192" viewBox="0.3500000238418579 -36.83000183105469 227.82998657226562 45.76000213623047" height="38.55167873601053" data-palette-color="#ec5242"><path d="M25.4-32.95L23.3-29.03Q22.93-28.43 22.51-28.13 22.1-27.83 21.45-27.83L21.45-27.83Q20.88-27.83 20.21-28.19 19.55-28.55 18.71-29 17.88-29.45 16.8-29.81 15.73-30.18 14.35-30.18L14.35-30.18Q11.98-30.18 10.81-29.16 9.65-28.15 9.65-26.43L9.65-26.43Q9.65-25.33 10.35-24.6 11.05-23.88 12.19-23.35 13.33-22.83 14.79-22.39 16.25-21.95 17.78-21.41 19.3-20.88 20.76-20.15 22.23-19.43 23.36-18.3 24.5-17.18 25.2-15.56 25.9-13.95 25.9-11.68L25.9-11.68Q25.9-9.15 25.03-6.95 24.15-4.75 22.49-3.11 20.83-1.48 18.39-0.54 15.95 0.4 12.85 0.4L12.85 0.4Q11.15 0.4 9.39 0.05 7.63-0.3 5.98-0.94 4.33-1.58 2.88-2.45 1.43-3.33 0.35-4.4L0.35-4.4 2.85-8.35Q3.13-8.8 3.63-9.08 4.13-9.35 4.7-9.35L4.7-9.35Q5.45-9.35 6.21-8.88 6.98-8.4 7.94-7.83 8.9-7.25 10.15-6.78 11.4-6.3 13.1-6.3L13.1-6.3Q15.4-6.3 16.68-7.31 17.95-8.33 17.95-10.53L17.95-10.53Q17.95-11.8 17.25-12.6 16.55-13.4 15.41-13.93 14.28-14.45 12.83-14.85 11.38-15.25 9.85-15.74 8.33-16.23 6.88-16.94 5.43-17.65 4.29-18.81 3.15-19.98 2.45-21.71 1.75-23.45 1.75-26L1.75-26Q1.75-28.05 2.58-30 3.4-31.95 5-33.48 6.6-35 8.93-35.91 11.25-36.83 14.25-36.83L14.25-36.83Q15.93-36.83 17.51-36.56 19.1-36.3 20.53-35.79 21.95-35.27 23.19-34.56 24.43-33.85 25.4-32.95L25.4-32.95ZM41.2-26.33L41.2-26.33Q43.77-26.33 45.91-25.53 48.05-24.73 49.59-23.2 51.12-21.68 51.98-19.46 52.85-17.25 52.85-14.45L52.85-14.45Q52.85-13.58 52.77-13.03 52.7-12.48 52.5-12.15 52.3-11.83 51.96-11.7 51.62-11.58 51.1-11.58L51.1-11.58 36.15-11.58Q36.52-8.33 38.12-6.86 39.72-5.4 42.25-5.4L42.25-5.4Q43.6-5.4 44.57-5.73 45.55-6.05 46.31-6.45 47.07-6.85 47.71-7.18 48.35-7.5 49.05-7.5L49.05-7.5Q49.97-7.5 50.45-6.83L50.45-6.83 52.7-4.05Q51.5-2.68 50.11-1.81 48.72-0.95 47.26-0.46 45.8 0.03 44.34 0.21 42.87 0.4 41.55 0.4L41.55 0.4Q38.82 0.4 36.44-0.49 34.05-1.38 32.26-3.13 30.47-4.88 29.43-7.48 28.4-10.08 28.4-13.53L28.4-13.53Q28.4-16.13 29.29-18.45 30.17-20.78 31.84-22.53 33.5-24.28 35.86-25.3 38.22-26.33 41.2-26.33ZM41.35-20.98L41.35-20.98Q39.12-20.98 37.87-19.71 36.62-18.45 36.22-16.07L36.22-16.07 45.9-16.07Q45.9-17 45.66-17.88 45.42-18.75 44.89-19.44 44.35-20.13 43.47-20.55 42.6-20.98 41.35-20.98ZM65.05 0L57.3 0 57.3-25.93 61.9-25.93Q62.47-25.93 62.86-25.83 63.25-25.73 63.51-25.51 63.77-25.3 63.91-24.95 64.05-24.6 64.15-24.1L64.15-24.1 64.57-21.68Q66-23.88 67.77-25.15 69.55-26.43 71.65-26.43L71.65-26.43Q73.42-26.43 74.5-25.58L74.5-25.58 73.5-19.88Q73.4-19.35 73.09-19.14 72.8-18.93 72.3-18.93L72.3-18.93Q71.87-18.93 71.3-19.04 70.72-19.15 69.84-19.15L69.84-19.15Q66.8-19.15 65.05-15.9L65.05-15.9 65.05 0ZM98.89 0L95.34 0Q94.24 0 93.68-0.3 93.12-0.6 92.74-1.55L92.74-1.55 92.19-2.98Q91.22-2.15 90.32-1.53 89.42-0.9 88.46-0.46 87.49-0.03 86.41 0.19 85.32 0.4 83.99 0.4L83.99 0.4Q82.22 0.4 80.77-0.06 79.32-0.53 78.31-1.43 77.29-2.33 76.74-3.66 76.19-5 76.19-6.75L76.19-6.75Q76.19-8.13 76.89-9.58 77.59-11.03 79.32-12.21 81.04-13.4 83.97-14.2 86.89-15 91.34-15.1L91.34-15.1 91.34-16.2Q91.34-18.48 90.41-19.49 89.47-20.5 87.74-20.5L87.74-20.5Q86.37-20.5 85.49-20.2 84.62-19.9 83.93-19.53 83.24-19.15 82.59-18.85 81.94-18.55 81.04-18.55L81.04-18.55Q80.24-18.55 79.68-18.94 79.12-19.33 78.79-19.9L78.79-19.9 77.39-22.33Q79.74-24.4 82.61-25.41 85.47-26.43 88.74-26.43L88.74-26.43Q91.09-26.43 92.98-25.66 94.87-24.9 96.18-23.54 97.49-22.18 98.19-20.3 98.89-18.43 98.89-16.2L98.89-16.2 98.89 0ZM86.44-4.73L86.44-4.73Q87.94-4.73 89.07-5.25 90.19-5.78 91.34-6.95L91.34-6.95 91.34-10.55Q89.02-10.45 87.52-10.15 86.02-9.85 85.14-9.4 84.27-8.95 83.93-8.38 83.59-7.8 83.59-7.13L83.59-7.13Q83.59-5.8 84.32-5.26 85.04-4.73 86.44-4.73ZM113.49 0.4L113.49 0.4Q111.64 0.4 110.23-0.14 108.82-0.68 107.85-1.66 106.89-2.65 106.39-4.05 105.89-5.45 105.89-7.18L105.89-7.18 105.89-20.58 103.69-20.58Q103.09-20.58 102.67-20.96 102.24-21.35 102.24-22.1L102.24-22.1 102.24-25.13 106.37-25.93 107.89-32.25Q108.19-33.45 109.59-33.45L109.59-33.45 113.64-33.45 113.64-25.88 119.94-25.88 119.94-20.58 113.64-20.58 113.64-7.7Q113.64-6.8 114.08-6.21 114.52-5.63 115.34-5.63L115.34-5.63Q115.77-5.63 116.05-5.71 116.34-5.8 116.55-5.91 116.77-6.03 116.95-6.11 117.14-6.2 117.39-6.2L117.39-6.2Q117.74-6.2 117.95-6.04 118.17-5.88 118.39-5.53L118.39-5.53 120.74-1.85Q119.24-0.73 117.37-0.16 115.49 0.4 113.49 0.4ZM135.49-26.33L135.49-26.33Q138.06-26.33 140.2-25.53 142.34-24.73 143.88-23.2 145.41-21.68 146.28-19.46 147.14-17.25 147.14-14.45L147.14-14.45Q147.14-13.58 147.06-13.03 146.99-12.48 146.79-12.15 146.59-11.83 146.25-11.7 145.91-11.58 145.39-11.58L145.39-11.58 130.44-11.58Q130.81-8.33 132.41-6.86 134.01-5.4 136.54-5.4L136.54-5.4Q137.89-5.4 138.86-5.73 139.84-6.05 140.6-6.45 141.36-6.85 142-7.18 142.64-7.5 143.34-7.5L143.34-7.5Q144.26-7.5 144.74-6.83L144.74-6.83 146.99-4.05Q145.79-2.68 144.4-1.81 143.01-0.95 141.55-0.46 140.09 0.03 138.63 0.21 137.16 0.4 135.84 0.4L135.84 0.4Q133.11 0.4 130.73-0.49 128.34-1.38 126.55-3.13 124.76-4.88 123.73-7.48 122.69-10.08 122.69-13.53L122.69-13.53Q122.69-16.13 123.58-18.45 124.46-20.78 126.13-22.53 127.79-24.28 130.15-25.3 132.51-26.33 135.49-26.33ZM135.64-20.98L135.64-20.98Q133.41-20.98 132.16-19.71 130.91-18.45 130.51-16.07L130.51-16.07 140.19-16.07Q140.19-17 139.95-17.88 139.71-18.75 139.18-19.44 138.64-20.13 137.76-20.55 136.89-20.98 135.64-20.98ZM160.74-26.38L160.74-26.38Q162.39-26.38 163.85-26.05 165.31-25.73 166.56-25.13L166.56-25.13 174.39-25.13 174.39-22.3Q174.39-21.65 174.02-21.28 173.66-20.9 172.79-20.7L172.79-20.7 170.89-20.28Q171.24-19.15 171.24-17.95L171.24-17.95Q171.24-16 170.42-14.45 169.61-12.9 168.2-11.81 166.79-10.73 164.86-10.14 162.94-9.55 160.74-9.55L160.74-9.55Q159.51-9.55 158.44-9.7L158.44-9.7Q157.59-9.2 157.59-8.55L157.59-8.55Q157.59-7.9 158.27-7.61 158.96-7.33 160.09-7.21 161.21-7.1 162.66-7.06 164.11-7.03 165.61-6.89 167.11-6.75 168.56-6.43 170.01-6.1 171.14-5.38 172.26-4.65 172.95-3.44 173.64-2.23 173.64-0.35L173.64-0.35Q173.64 1.4 172.79 3.08 171.94 4.75 170.29 6.05 168.64 7.35 166.24 8.14 163.84 8.93 160.74 8.93L160.74 8.93Q157.69 8.93 155.47 8.35 153.26 7.78 151.8 6.84 150.34 5.9 149.64 4.67 148.94 3.45 148.94 2.13L148.94 2.13Q148.94 0.4 149.99-0.79 151.04-1.98 152.86-2.65L152.86-2.65Q151.99-3.23 151.46-4.13 150.94-5.03 150.94-6.4L150.94-6.4Q150.94-6.98 151.14-7.61 151.34-8.25 151.76-8.85 152.19-9.45 152.84-10 153.49-10.55 154.39-10.98L154.39-10.98Q152.36-12.05 151.2-13.83 150.04-15.6 150.04-17.95L150.04-17.95Q150.04-19.9 150.86-21.46 151.69-23.03 153.12-24.11 154.56-25.2 156.51-25.79 158.46-26.38 160.74-26.38ZM166.49 0.95L166.49 0.95Q166.49 0.33 166.1-0.05 165.71-0.43 165.05-0.65 164.39-0.88 163.5-0.98 162.61-1.07 161.59-1.13 160.56-1.18 159.46-1.21 158.36-1.25 157.29-1.38L157.29-1.38Q156.56-0.88 156.1-0.26 155.64 0.35 155.64 1.13L155.64 1.13Q155.64 1.68 155.87 2.13 156.11 2.58 156.71 2.9 157.31 3.23 158.32 3.41 159.34 3.6 160.89 3.6L160.89 3.6Q162.56 3.6 163.64 3.4 164.71 3.2 165.35 2.85 165.99 2.5 166.24 2.01 166.49 1.53 166.49 0.95ZM160.74-14.33L160.74-14.33Q162.66-14.33 163.52-15.29 164.39-16.25 164.39-17.78L164.39-17.78Q164.39-19.35 163.52-20.25 162.66-21.15 160.74-21.15L160.74-21.15Q158.81-21.15 157.95-20.25 157.09-19.35 157.09-17.78L157.09-17.78Q157.09-17.03 157.3-16.4 157.51-15.78 157.96-15.31 158.41-14.85 159.1-14.59 159.79-14.33 160.74-14.33ZM185.48 0L177.73 0 177.73-25.93 182.53-25.93Q183.26-25.93 183.75-25.6 184.23-25.28 184.43-24.63L184.43-24.63 184.88-23.13Q185.63-23.83 186.43-24.43 187.23-25.03 188.15-25.44 189.06-25.85 190.12-26.09 191.18-26.33 192.43-26.33L192.43-26.33Q194.56-26.33 196.2-25.59 197.83-24.85 198.96-23.54 200.08-22.23 200.66-20.41 201.23-18.6 201.23-16.48L201.23-16.48 201.23 0 193.48 0 193.48-16.48Q193.48-18.38 192.61-19.44 191.73-20.5 190.03-20.5L190.03-20.5Q188.76-20.5 187.63-19.95 186.51-19.4 185.48-18.48L185.48-18.48 185.48 0ZM228.18 0L224.63 0Q223.53 0 222.97-0.3 222.41-0.6 222.03-1.55L222.03-1.55 221.48-2.98Q220.51-2.15 219.61-1.53 218.71-0.9 217.74-0.46 216.78-0.03 215.69 0.19 214.61 0.4 213.28 0.4L213.28 0.4Q211.51 0.4 210.06-0.06 208.61-0.53 207.59-1.43 206.58-2.33 206.03-3.66 205.48-5 205.48-6.75L205.48-6.75Q205.48-8.13 206.18-9.58 206.88-11.03 208.61-12.21 210.33-13.4 213.26-14.2 216.18-15 220.63-15.1L220.63-15.1 220.63-16.2Q220.63-18.48 219.69-19.49 218.76-20.5 217.03-20.5L217.03-20.5Q215.66-20.5 214.78-20.2 213.91-19.9 213.22-19.53 212.53-19.15 211.88-18.85 211.23-18.55 210.33-18.55L210.33-18.55Q209.53-18.55 208.97-18.94 208.41-19.33 208.08-19.9L208.08-19.9 206.68-22.33Q209.03-24.4 211.89-25.41 214.76-26.43 218.03-26.43L218.03-26.43Q220.38-26.43 222.27-25.66 224.16-24.9 225.47-23.54 226.78-22.18 227.48-20.3 228.18-18.43 228.18-16.2L228.18-16.2 228.18 0ZM215.73-4.73L215.73-4.73Q217.23-4.73 218.36-5.25 219.48-5.78 220.63-6.95L220.63-6.95 220.63-10.55Q218.31-10.45 216.81-10.15 215.31-9.85 214.43-9.4 213.56-8.95 213.22-8.38 212.88-7.8 212.88-7.13L212.88-7.13Q212.88-5.8 213.61-5.26 214.33-4.73 215.73-4.73Z" opacity="1" transform="matrix(1,0,0,1,0,0)" fill="#ec5242" class="undefined-text-0" data-fill-palette-color="primary" id="text-0"></path></svg></g></svg></g></svg></g></svg></g><g></g></svg></g></svg></g></svg></g><defs></defs></svg><rect width="320" height="360" fill="none" stroke="none" visibility="hidden"></rect></g></svg></g></svg>